<svg xmlns="http://www.w3.org/2000/svg" version="1.1" xmlns:xlink="http://www.w3.org/1999/xlink" xmlns:svgjs="http://svgjs.dev/svgjs" width="1440" height="560" preserveAspectRatio="none" viewBox="0 0 1440 560"><g mask="url(&quot;#SvgjsMask1050&quot;)" fill="none"><rect width="1440" height="560" x="0" y="0" fill="#0e2a47"></rect><path d="M0,509.101C97.924,532.596,205.634,506.239,290.407,451.882C375.218,397.501,431.901,307.364,463.711,211.77C493.609,121.92,473.541,27.539,462.922,-66.558C451.956,-163.729,466.066,-274.48,400.634,-347.151C335.346,-419.662,221.701,-408.765,128.577,-437.893C33.392,-467.666,-54.861,-539.295,-152.758,-520.245C-252.6,-500.817,-339.054,-425.709,-389.102,-337.159C-435.773,-254.584,-414.632,-154.253,-413.218,-59.412C-412.022,20.795,-418.098,102.846,-381.477,174.215C-345.694,243.95,-271.717,279.436,-212.814,331.145C-141.885,393.412,-91.778,487.081,0,509.101" fill="#0c253e"></path><path d="M1440 923.101C1529.945 933.659 1621.674 1009.374 1702.338 968.2049999999999 1781.848 927.625 1792.286 817.675 1815.467 731.47 1835.559 656.751 1831.425 581.598 1827.069 504.348 1822.29 419.594 1850.708 315.83799999999997 1788.761 257.797 1725.761 198.769 1622.59 235.44799999999998 1536.328 231.938 1471.564 229.303 1410.399 232.64800000000002 1345.975 239.781 1266.845 248.54199999999997 1172.371 223.15300000000002 1115.2060000000001 278.565 1058.372 333.656 1067.403 427.77 1070.44 506.865 1073.095 576.02 1108.185 635.734 1131.421 700.923 1157.218 773.298 1152.112 866.0419999999999 1214.466 910.937 1276.827 955.838 1363.68 914.142 1440 923.101" fill="#103050"></path></g><defs><mask id="SvgjsMask1050"><rect width="1440" height="560" fill="#ffffff"></rect></mask></defs></svg>